<?xml version="1.0"?><svg version="1.2" baseProfile="tiny-ps" viewBox="0 0 300 300" xmlns="http://www.w3.org/2000/svg" xmlns:xlink="http://www.w3.org/1999/xlink"><title>LADAEN</title><g><g fill="#fdfdfd" transform="matrix(.1 0 0 -.1 0 300)"><path d="M0 1500V0h3000v3000H0V1500z"/></g><g fill="#e5dcd2" transform="matrix(.1 0 0 -.1 0 300)"><path d="M2734 2928v-73l-23-68-23-68-58-78-58-79-64-53c-64-54-213-153-403-269l-107-65-50-49-50-50-24-48-24-48-6-44-6-43 15-54c9-30 32-81 52-114l36-60-65 64-65 64-22 51-21 50-4 80c-3 45-6 97-8 118l-4 36 19 5 19 5v89l74 104 74 104-14 16-15 17 16 6 16 6-3 107-3 108-195 7c-107 4-203 4-212 2l-18-5v-229h23l-16-18-16-18 75-98c81-106 94-131 94-176v-28l14-5 13-5 5-114 5-113 23-59 23-59 127-128 128-128 27-56 28-55-6-38-6-37-27-24-28-23-47 4-47 5-43 23c-70 36-155 109-298 257-74 76-191 195-259 265l-124 128-71 47c-38 25-96 57-127 70l-57 23-75 11-74 11-93-16c-118-21-200-49-265-90l-52-33-51-58-52-58-25-51c-14-28-32-78-40-111l-16-59v-162l15-59 16-60 26-39c14-21 55-69 92-105l66-66 58-31 58-31h-28c-15 0-58-3-95-7l-66-7-18-13-18-13 20-10c10-6 48-13 84-17s105-14 154-22l89-16 166 5c91 3 236 11 321 17l155 11 380 3 380 4 50 11c28 7 75 16 105 21 30 4 68 11 84 15l29 8-16 8c-8 5-47 12-87 15l-73 7 31 16c17 9 50 34 73 56l42 40 20 45 20 45v110l-20 46c-11 25-35 62-53 82l-32 37-17-12-16-13 12 16 13 16-25 44c-13 24-41 78-62 119l-38 75v65l1 65 21 40 21 40 49 45c27 25 103 82 170 127 149 103 256 194 324 275l52 63 35 73 34 72 11 73 10 72-12 73-13 72h-45l1-72zm-61-299-28-51-70-71c-38-38-80-76-93-85l-23-15-10 10-9 9 83 76c46 42 101 99 122 127 50 66 64 65 28 0zM835 1831c22-10 54-30 72-45l31-26 26-52 26-52v-146l-21-44c-36-78-121-146-182-146-38 0-94 27-138 67l-41 37-26 50-26 51v152l31 54 30 54 47 33 48 32h83l40-19zm1289-313 19-33-28 30c-113 120-144 156-164 186l-23 34 89-92c48-50 97-106 107-125zm-773-55c193-210 227-243 316-301l63-40-123-8c-146-9-420-8-530 1l-79 7 58 51 57 52 38 58 38 58 21 65 22 65-6 15-6 16-13-11-14-11 1 43 1 42-12-2-13-3v45c0 25 2 45 5 45 2 0 82-84 176-187zm639 139c60-64 85-95 74-91-15 6-128 129-118 129 5 0 25-17 44-38zm-487-829-23-15V370h37l16 18 17 19v383l-12-1c-7 0-23-7-35-16zm1135 2-27-15-3-146-3-146-19-14-20-14h-531l-12 61-12 61-23 25c-13 14-38 31-57 39l-33 14h-77l-16-30c-8-16-15-34-15-40v-10h106l20-15 21-14 6-31c4-16 4-37 1-45l-6-15h-197l-21-30-21-30 6-10 6-10h864l34 18c19 9 44 30 55 45l21 28v332l-10 3c-5 2-22-3-37-11zM395 745l-25-24v-18c0-10 7-29 16-41l15-22h66l16 18 17 19v52l-26 20c-34 27-50 26-79-4zm881-10c-9-9-16-22-16-28 0-7-3-22-6-35l-7-23 54 3 54 3v30l-22 3c-27 4-31 20-5 18l17-1v40l-26 3-26 3-17-16zM548 609l-28-21V458l-29-29-29-29h-32c-38 0-69 15-92 44l-18 21v145h-80V459l19-37c22-42 43-63 88-86l32-16h83l33 16c18 8 42 26 54 38l22 23 37-18 36-19h587l34 14 35 15 20 33 20 33v175h-10c-6 0-24-7-40-15l-30-16V461l-19-11-20-10H644l-19 14-20 14-3 81-4 81h-12c-6 0-23-10-38-21zM284 207c-3-8-4-41-2-73l3-59 59-3 58-3-4 13-5 13-36 3-36 3-3 56-3 56-12 5-13 4-6-15zm447-53c-35-76-37-84-16-84h16l19 45c11 25 22 45 25 45s15-20 26-45l20-45h14c21 0 19 12-14 85l-30 65h-29l-31-66zm419-9V70h100l20 20 20 20v67l-23 21-23 22h-94v-75zm94 29c9-8 16-22 16-29 0-20-28-45-51-45h-19v90h19c11 0 27-7 35-16zm357-22c-36-79-36-82-16-82h15l22 45c12 25 24 45 27 45 4 0 14-20 24-45l19-45h28v15c0 9-14 42-30 75l-30 60h-27l-32-68zm331 28 1-40h12c6 0 16 5 23 12l12 12v56h-50l2-40zm268-35V70h120v30h-80v30h70v30h-70v30h80v30h-120v-75zm340 0V70h29l3 46 3 46 35-46 34-47 16 3 15 3v140h-30l-5-39-5-38-33 41-33 41h-29v-75z"/></g><g fill="#cdb090" transform="matrix(.1 0 0 -.1 0 300)"><path d="m2738 2933 3-68-14-50c-8-27-18-59-22-70l-8-20 16 20 15 20 8-7 7-8-38-76-37-77-74-77c-68-71-139-129-221-181l-32-20 9 31 9 32-16-6c-9-4-73-41-142-82-233-140-288-188-332-290l-21-49 4-60 5-60 17-40 18-40 5 12 4 12 114-125 113-124 21-43c11-23 23-58 26-77l5-35-11 34-10 34-60 71c-32 39-81 96-107 126s-57 69-70 85l-23 30 23-43c13-24 53-78 89-120 63-74 106-139 96-148-2-3-24 19-48 48s-93 105-154 168l-110 115-19 39-18 38-3 87c-1 47-6 130-10 184l-8 97h23v-91l10 6 10 6v76l41 63c23 35 57 84 76 109l34 45-17 13-18 13 17 13 18 12-3 105-3 105-85-3-85-4-9-8c-4-5-11-37-13-72-3-34-10-79-17-98l-11-35-27-3-27-3-3 113-3 113h-130l-3-108-3-107 23-9 23-8-23-7-23-8 5-15c3-8 40-58 81-112l75-98v-31c0-17 3-37 6-46l6-16h38l-11-24-11-24 10-103 10-104 21-49 22-49 128-131 128-131 22-42 21-42v-41c0-23-5-50-11-62l-11-20-34-14-34-14-47 10c-57 13-96 36-183 106-65 52-245 232-371 369-104 114-200 203-270 250l-67 45-68 26-69 26-81 5-81 6-103-23-104-22-60-30-59-30-55-51c-63-61-100-112-130-184l-22-51-11-75-11-75 11-81 11-81 25-49 25-50 77-79 78-79 74-36 74-35-39-7c-21-3-50-9-64-12l-25-5 25-10 25-9 170-1 170-1 113 13c62 7 115 16 117 21l5 7-52 9-53 8 46 27c25 15 68 51 97 80l52 53 35 71 34 71 7 42c4 22 4 41 0 41-3 0-17-21-31-47-15-27-23-39-19-28 15 47 25 101 21 124l-3 26-11-25-11-25 1 78c0 42 2 77 3 77 2 0 85-90 184-200l182-200 61-49c34-27 88-62 120-78l57-30-7-6c-3-4-28-7-54-7h-48l-5-9-5-8 67-5c87-7 363 1 399 11l28 8-28 8-28 7 50 23 49 23 39 39c47 47 72 98 79 161l6 47-14 40-13 40-30 3c-16 2-34 8-39 13-6 5-14 9-19 9h-9l5-22 6-23-17 25c-9 13-45 58-78 100-60 74-110 157-101 167 3 2 8-4 11-14s15-24 25-30l20-12 22 18 22 18-18 64-18 64 1 51v51l25 49c32 62 66 94 197 185 177 122 253 184 328 264l72 77 34 62c19 33 41 85 50 115l16 55v151l-11 38-10 37h-34l3-67zm-939-602c-43-109-44-106-13 34 6 27 32 60 41 51 2-2-11-40-28-85zM510 2018c0-8-150-160-150-153 0 4 9 23 21 41 29 47 130 134 129 112zm1471-30-8-22-42-15-42-16-9 15c-12 20-3 30 29 30h29l12 15c7 8 19 15 26 15h13l-8-22zm-1494-77c-20-22-43-51-53-65-9-15-19-25-21-22-11 11 80 126 100 126 5 0-7-18-26-39zm62-81c-31-38-39-46-39-35 0 6 61 75 67 75 2 0-11-18-28-40zm315-9 50-28 33-47c55-80 66-158 37-256l-16-53-51-51-52-52-41-12-41-12-49 17-49 17-51 50-50 51-17 49-17 50v121l24 50 24 50 33 32c19 17 48 39 64 48l30 16 44-6 45-5 50-29zm741-361c10-11 16-20 13-20s-13 9-23 20-16 20-13 20 13-9 23-20zm-550-90c-3-5-16-15-28-21l-22-10 24 20c25 23 36 27 26 11zm453-601-28-21V370h9c4 0 20 9 35 21l26 20v379h-7c-5 0-20-10-35-21zm1135 1-33-20V475l-8-11c-4-6-17-16-29-23l-22-11h-528l-6 62-5 61-35 35-36 35-57 5-57 5-14-19c-7-10-13-24-13-31v-13h34c18 0 47-5 65-11l31-11 10-18c6-10 10-37 10-59v-41h-217l-11-25c-7-14-12-28-12-30 0-3 200-5 445-5h444l35 31 35 31 6 31c3 18 5 98 3 179l-3 148-32-20zM396 744l-16-15v-56l18-16c10-10 28-17 39-17h20l16 18 17 19v52l-16 15-15 16h-48l-15-16zm895-3c-8-5-20-25-26-46l-13-36 13-5c7-3 28-4 47-2l33 3v30l-22 3c-13 2-23 8-23 13v9h40v14c0 8-7 17-16 20-19 7-16 8-33-3zm7-127-28-15V479l-25-25-25-25-289 3-289 3-21 19-21 19v147h-10c-5 0-21-5-35-12l-25-11V475l-20-32-19-32-34-9-35-10-25 5-25 5-26 27-25 26-3 75-3 75-32 3-33 3V449l15-28c8-16 28-40 45-55l31-25 39-11 40-11 40 11 40 11 36 31 36 31 28-16 28-17h617l24 13c13 6 34 25 45 40l21 28 3 90 4 89h-9c-4-1-20-8-35-16zM290 145V70h100v19l-37 3-38 3-3 63-3 62h-19v-75zm446 7-36-71 9-5 9-6 10 13c6 6 18 32 28 56l17 44 29-57 29-57 9 6 9 5-25 58c-14 31-32 63-39 71l-13 14-36-71zm424-7V67l46 6 46 5 16 16 16 16v70l-16 16-16 16-46 5-46 6v-78zm88 33c7-7 12-21 12-33s-5-26-12-33l-12-12h-56v90h56l12-12zm362-17c-16-33-30-68-30-76V69l11 7c6 3 20 26 31 50 10 24 22 44 26 44 5 0 13-15 20-33 6-18 18-42 26-52l14-20 7 6 6 7-29 65c-16 35-34 67-40 71l-11 7-31-60zm329 47c-1-7 0-17 1-23 2-5 2-18 2-27l-1-17 15 6c16 6 29 47 19 62-3 6-13 11-21 11h-14l-1-12zm271-63V70h102l-4 12-4 12h-34l-35 1-3 18-3 17h71v30h-70v30h80v30h-100v-75zm334 61c-3-7-4-39-2-70l3-56h20l5 45 5 46 38-50c20-28 42-51 47-51h10v150h-19l-3-52-3-52-40 52c-41 54-52 61-61 38z"/></g><g fill="#ba7c40" transform="matrix(.1 0 0 -.1 0 300)"><path d="M2740 2985c0-8 2-15 4-15s6 7 10 15l5 15h-9c-6 0-10-7-10-15zm17-19-6-15 9-6 10-6v-47c0-67-25-154-66-233l-36-69-61-66c-75-82-283-240-387-294l-25-13 18 21 19 20-4 21-3 21-95-56c-52-30-114-71-137-90-43-35-99-101-92-108 2-2 29 3 59 11l55 14 29 27 29 27-12-22c-6-12-16-25-21-28-6-4-23-30-37-58l-27-52v-67c0-37 3-71 7-75l8-7 28 17c15 9 30 14 33 11 3-2 7 29 10 70l5 74 26 45c32 55 47 67 239 204l152 108 74 69c40 38 95 99 122 135l50 66 27 65 26 65 1 100 1 100-11 19-11 18-6-16zm-1219-276-17-10 2-98 2-97 15-12 15-12-17-6c-25-10-22-22 5-29l22-6 58-104 57-105v-34c0-18 3-37 7-40l6-7 12 10 12 10-5-104-5-104 22-73 22-72 133-136c141-145 170-184 181-243l7-37-12-36-12-35-28-15-29-15h-33c-48 1-98 21-166 68l-60 41-7-7-6-7-277 281c-152 154-297 298-322 318-25 21-38 35-30 31l15-6-20 16c-11 10-51 32-90 51l-70 33-73 12-74 12-100-17c-55-10-125-26-154-37l-54-18-53-37c-104-74-182-183-213-299l-14-50v-181l16-54c22-75 60-128 154-218l45-43 69-34c38-19 75-35 82-35 8 0 14-4 14-10v-10h-29c-17 0-32-4-35-9l-6-8 58-7 57-6 155 10c85 5 163 10 173 10h17v20h-45l55 32 55 32 56 56 55 57 31 64c17 35 34 82 37 104l7 40-31-60c-17-33-35-64-42-70l-11-10 8 20c30 80 45 131 44 149v21l-11-25c-54-121-88-171-142-205l-31-20 56 55 56 55 23 60 24 60 1 89v89l130-139c72-76 180-189 240-249l110-110 80-39 80-39-20-7-20-8 18-7 18-7 144 7 145 7-5 8-5 8 54 25c29 14 71 41 94 61l40 36 21 51 22 50-3 31-3 31-18 3c-9 1-26 13-37 26l-19 23-1-35-1-35-13 41c-18 57-72 134-165 236-44 48-87 101-96 118l-16 30h44l-7 47c-3 25-8 48-10 51-6 6-96-40-96-49 0-4 4-19 10-33l10-26h15c8 0 15-3 15-7 0-5 15-24 33-43 17-19 66-72 107-117l76-81 26-54c15-29 29-68 33-85l7-33h-10c-5 0-24 29-42 65l-32 65-40 43-40 42 27-34c39-50 62-101 70-154l7-47h-22v60h-8c-4 0-18 20-29 43l-21 44-70 74c-38 41-97 103-130 139l-62 65-22 45-23 45v240l-9 17-8 18 4 42c3 24 11 87 18 141l13 97h39c21 0 38-2 38-4s-18-47-40-100-40-104-39-113l1-18 5 15c3 8 30 57 61 108l55 94 3 26c13 93 15 135 9 195l-7 68-15-12-14-13 3-93 3-93-13-5c-8-3-58-5-112-5h-99l-3 113-3 112-40 2-40 3-17-10zm142-296c6-14 10-38 9-52-1-15 2-43 6-62l6-35-11 18c-14 22-50 125-50 144v13h30l10-26zM497 1988c-38-33-87-86-110-117l-41-55-4 12-4 12 27 46c34 58 93 117 142 143 63 34 61 24-10-41zm7-71c-32-35-71-79-86-98l-28-34 10 29c16 44 71 116 110 142 58 40 56 27-6-39zm626 11 55-37 275-274 275-273 64-42 63-42h-14c-8 0-23 7-34 15-10 8-26 15-35 15h-16l-79 74c-43 40-124 120-179 177-276 286-386 391-432 412-13 6-23 14-23 19v9l13-7c6-5 37-25 67-46zm-605-60c-33-35-61-65-63-68-3-3 2 9 11 26 15 29 89 104 104 104 3 0-20-28-52-62zm640-19c77-61 523-516 498-508-7 2-140 131-297 287-156 155-279 279-273 275 7-3 39-28 72-54zm-598-8c-19-22-43-51-53-65-25-39-29-24-5 22l20 40 33 26c45 35 48 24 5-23zm292-11c46-23 97-80 122-134l19-41v-132l-15-44c-9-23-27-58-41-76l-25-33-52-31-52-30-42 4-42 4-51 33-51 33-29 41-28 42-17 58-17 58 7 46c15 104 66 178 148 217l48 23 40-9c23-5 58-18 78-29zm264-1c57-45 144-129 367-354 148-150 194-189 296-250 70-43 64-45-14-6-89 46-111 65-377 329-137 137-270 265-295 285s-41 37-37 37 31-18 60-41zm-503-2c0-2-12-14-26-28l-27-24 18 28c14 22 35 36 35 24zm661-206c74-75 178-185 233-244 105-115 170-169 251-211 28-14 44-26 36-26-7 0-41 14-75 32l-61 31-160 166c-88 91-224 229-301 308l-142 143 43-31c23-17 103-92 176-168zm-185-198c-21-40-75-90-118-107-58-24-58-19-1 14l51 29 37 46c43 52 52 57 31 18zm-37-159c-13-14-33-30-44-36l-20-10 40 36c47 42 58 46 24 10zm838-10c-3-3-12-4-19-1l-13 5 19 1c11 1 17-2 13-5zm-20-70c-3-3-12-4-19-1l-13 5 19 1c11 1 17-2 13-5zm-115 976v-25l5 13c2 6 2 18 0 25l-5 12v-25zM1503 763l-23-15V380h39l15 22 16 22v356l-12-1c-7 0-23-7-35-16zm1132 1-20-15-1-141-1-142-23-18-22-18h-545l-7 56-6 57-22 29-21 30-33 14-33 14h-78l-11-25c-17-36-17-35 37-35h48l27-21 26-20v-99h-208l-16-25c-9-13-16-27-16-30s195-5 433-5h432l35 18 35 17 17 35 18 35v305h-12c-7 0-22-7-33-16zM408 749l-18-10v-65l12-12 12-12h55l11 19c15 29 12 49-10 71s-37 24-62 9zm875-21c-6-7-13-25-17-40l-6-28h90v9c0 5-10 11-22 13l-23 3-3 18-4 19 21-7 21-6v31h-48l-9-12zM553 603l-23-15V462l-26-31-25-30-36-7-35-7-35 17-34 16-15 35-14 34v111h-60V462l14-33c16-39 37-59 83-83l32-16h83l33 16c18 8 42 26 54 38l22 23 37-18 36-19h588l34 16 35 17 16 31 16 31 5 78 5 77h-11c-6 0-23-5-37-12l-25-11V470l-20-20-20-20H642l-23 19-24 19-3 76c-2 42-7 76-11 75-3 0-16-7-28-16zM290 145V80l53 2 52 1-42 4-43 4v119h-20v-65zm449 8c-13-32-25-61-27-65s1-8 6-8 19 24 31 53l22 52 15-20c8-10 20-34 26-52 7-18 16-33 20-33 12 0 10 8-18 71l-27 59h-23l-25-57zm421-8V80h87l16 18 17 19v60l-18 16-19 17h-83v-65zm84 42 19-14v-56l-19-14c-10-7-28-13-41-13h-23v110h23c13 0 31-6 41-13zm365-38c-16-34-28-64-25-67 8-7 10-5 39 53l25 49 26-53c15-29 30-50 33-47 8 8-48 126-59 126-4 0-22-27-39-61zm335 39c3-13 6-27 6-31v-8l10 6c6 3 10 17 10 31v24h-32l6-22zm266-43V80l53 2 52 1-42 4-43 4v48l38 4 37 4-37 1-38 2v49l43 4 42 4-52 1-53 2v-65zm340 0V80h20v95l41-48c22-26 45-47 50-47h9v130h-20v-47l-1-48-42 48c-23 26-45 47-49 47h-8v-65z"/></g><g fill="#69605e" transform="matrix(.1 0 0 -.1 0 300)"><path d="m2771 2924 1-19 5 13c3 7 2 16-1 19-3 4-6-2-5-13zm-1-53v-21h10c6 0 10 6 10 14s-4 18-10 21l-10 6v-20zm2-61v-25l5 13c2 6 2 18 0 25l-5 12v-25zm-1192-135-13-15-2-92-2-91-22-18-22-18 41-11 40-11v-13c0-8 7-19 15-26l15-12v52h165l40 14c21 8 41 18 42 23l3 8h-245l-3 113-3 112h-18c-10 0-24-7-31-15zm60-359c0-8 5-18 10-21l10-6v15c0 8-4 18-10 21l-10 6v-15zm53-136v-45l4 23c2 12 2 32 0 45l-4 22v-45zm-1048-80c-119-24-165-42-228-86-104-74-182-183-213-299l-14-50v-181l16-54c22-75 60-128 154-218l45-43 69-34c38-19 75-35 82-35 8 0 14-4 14-10v-10h-29c-17 0-32-4-35-9l-6-8 58-7 57-6 155 10c85 5 163 10 173 10h17v20h-45l55 32 55 32 56 56 55 57 31 64c17 35 34 82 37 104l7 40-31-60c-17-33-35-64-42-70l-11-10 8 20c30 80 45 131 44 149v21l-11-25c-54-121-88-171-142-205l-31-20 56 55 56 55 23 60 24 60 1 89v89l130-139c72-76 180-189 240-249l110-110 80-39 80-39-20-7-20-8 18-7 18-7 144 7 145 7-5 9-6 8 51 26c27 14 50 28 50 30 0 3-12 10-26 16l-27 10-16-14c-22-18-95-41-112-34l-14 5 45 21c25 11 52 21 61 21 8 0 26 12 40 26l24 27-23-12-24-13-14 6-15 6 11 21 12 21-22-12-21-11-19 6c-11 4-20 10-20 15v8l-62-3-62-3-43 19c-63 27-52 12 13-18l57-26 37-1 38-1-4-7c-3-5-29-8-57-8h-52l-61 29-61 29-130 128c-71 71-199 201-284 290-158 165-227 229-266 247-13 6-23 14-23 19v9l13-8c7-4 40-26 72-48l60-40 240-240c132-132 201-200 154-150-48 49-115 121-150 160-92 100-266 275-319 319-25 21-38 35-30 31l15-6-20 16c-11 9-46 30-79 47l-59 30-66 14c-84 18-125 17-236-6zm-148-112c-38-33-87-86-110-117l-41-55-4 12-4 12 27 46c34 58 93 117 142 143 63 34 61 24-10-41zm7-71c-32-35-71-79-86-98l-28-34 10 29c16 44 71 116 110 142 58 40 56 27-6-39zm21-49c-33-35-61-65-63-68-3-3 2 9 11 26 15 29 89 104 104 104 3 0-20-28-52-62zm640-19c53-42 192-180 440-436l80-83h-28l-286 289c-157 160-281 287-276 284 6-4 37-28 70-54zm-598-8c-19-22-43-51-53-65-25-39-29-24-5 22l20 40 33 26c45 35 48 24 5-23zm292-11c46-23 97-80 122-134l19-41v-132l-15-44c-9-23-27-58-41-76l-25-33-52-31-52-30-42 4-42 4-51 33-51 33-29 41-28 42-17 58-17 58 7 46c15 104 66 178 148 217l48 23 40-9c23-5 58-18 78-29zm264-1c29-22 160-147 292-278l240-239 76-49 77-50 48-13c27-7 53-17 59-21l9-9h-22c-36 0-128 39-194 82l-63 41-250 252c-137 139-270 268-295 288-62 50-42 47 23-4zm-503-2c0-2-12-14-26-28l-27-24 18 28c14 22 35 36 35 24zm599-141c51-50 158-161 237-247l143-156 68-51c38-28 91-61 119-73l49-21 70-8 70-7-62-2-62-1-55 20c-113 43-195 111-370 306-49 54-151 161-227 237s-123 128-106 115c18-12 74-63 126-112zm-123-263c-21-40-75-90-118-107-58-24-58-19-1 14l51 29 37 46c43 52 52 57 31 18zm-37-159c-13-14-33-30-44-36l-20-10 40 36c47 42 58 46 24 10zm658 849c-4-3-6-34-5-67l1-61 7 65c7 70 7 73-3 63zm5-183v-35l5 18c2 9 2 25 0 35l-5 17v-35zm3-570c10-11 20-20 23-20s-3 9-13 20-20 20-23 20 3-9 13-20zm35-24c0-2 8-10 18-17l17-14-14 18c-13 16-21 21-21 13zm-257-573-23-15V380h39l15 22 16 22v356l-12-1c-7 0-23-7-35-16zm1132 1-20-15-1-141-1-142-23-18-22-18h-545l-7 56-6 57-22 29-21 30-33 14-33 14h-78l-11-25c-17-36-17-35 37-35h48l27-21 26-20v-99h-208l-16-25c-9-13-16-27-16-30s195-5 433-5h432l35 18 35 17 17 35 18 35v305h-12c-7 0-22-7-33-16zm-1352-36c-6-7-13-25-17-40l-6-28h90v9c0 5-10 11-22 13l-23 3-3 18-4 19 21-7 21-6v31h-48l-9-12zm-816-34c-4-4-7-14-7-23v-15l11 11c6 6 10 16 7 23l-3 11-8-7zm86-91-23-15V462l-26-31-25-30-36-7-35-7-35 17-34 16-15 35-14 34v111h-60V462l14-33c16-39 37-59 83-83l32-16h83l33 16c18 8 42 26 54 38l22 23 37-18 36-19h588l34 16 35 17 16 31 16 31 5 78 5 77h-11c-6 0-23-5-37-12l-25-11V470l-20-20-20-20H642l-23 19-24 19-3 76c-2 42-7 76-11 75-3 0-16-7-28-16zM290 145V80l53 2 52 1-42 4-43 4v119h-20v-65zm449 8c-13-32-25-61-27-65s1-8 6-8 19 24 31 53l22 52 15-20c8-10 20-34 26-52 7-18 16-33 20-33 12 0 10 8-18 71l-27 59h-23l-25-57zm421-8V80h87l16 18 17 19v60l-18 16-19 17h-83v-65zm84 42 19-14v-56l-19-14c-10-7-28-13-41-13h-23v110h23c13 0 31-6 41-13zm365-38c-16-34-28-64-25-67 8-7 10-5 39 53l25 49 26-53c15-29 30-50 33-47 8 8-48 126-59 126-4 0-22-27-39-61zm601-4V80l53 2 52 1-42 4-43 4v48l38 4 37 4-37 1-38 2v49l43 4 42 4-52 1-53 2v-65zm340 0V80h20v95l41-48c22-26 45-47 50-47h9v130h-20v-47l-1-48-42 48c-23 26-45 47-49 47h-8v-65z"/></g><g fill="#2a2a2d" transform="matrix(.1 0 0 -.1 0 300)"><path d="m1547 2457-17-14 38-10 39-10 122 7 122 7 11 11 12 12h-104c-58 0-127 3-155 5l-50 6-18-14zm-854-364c9-2 23-2 30 0l12 5h-60l18-5zm-39-28c-67-21-119-52-177-105-68-62-111-128-142-216l-23-67-7 34-6 34 14 45c8 25 18 52 21 61l7 16h-18c-10 0-32-10-49-23l-31-22-22-69-23-68-5-65-5-65 16-79 16-80 18-27c9-15 36-52 60-83l43-57 59-43c50-37 108-65 185-91l19-6-13-8-13-9 12-7 11-7 145 7 144 7 8 13c4 7 26 22 50 34 60 30 52 33-15 5l-58-24-35 1h-35l60 18c33 9 71 23 85 30 48 26 128 91 151 123l24 33-60-49c-70-57-142-93-205-101l-45-6 58 21c71 25 130 61 180 108 52 50 46 57-14 16l-51-34-51-15c-28-8-62-15-77-15h-26l-20 15-19 14 65-1 65-2 50 26 50 26 35 38c38 40 26 37-30-7-19-16-55-35-79-44l-44-15H802l-81 41-81 40-38 52c-21 29-44 70-52 92l-14 40 2 58c0 32 4 68 8 79l6 21-11-7-11-7v16c0 43 69 133 124 162l29 15 7-12 7-11 15 14c8 9 35 21 59 27l44 12 59-6 59-6 51-24c28-13 78-43 111-68l60-44 160-169c88-93 208-218 267-277l107-107 73-35 74-35 59-6c33-3 54-2 48 1-7 3-13 10-13 15v9h34c19 0 37 4 40 8l5 8h-87l-87-1-55 29c-98 51-161 105-405 352l-240 242-79 51-79 51-52 16-53 15-66 1-67 1 11 11 11 11h82l83-1 82-40c45-23 79-38 77-33-10 15-110 67-165 85l-55 18H735l-54-20-54-19-69-64-69-63-25-43c-13-24-27-53-29-65-2-13-7-25-11-29l-7-6 6 38c3 21 16 60 29 85l22 47 51 50 50 51 45 15c62 22 130 38 194 45l54 7 69-21 69-21 64-41 65-41-33 29c-40 36-144 87-206 103l-46 11-83-4-82-5-57-27-57-27-50-45-50-45-34-57c-19-31-40-73-47-92s-18-39-23-45l-10-10 6 42c3 23 16 67 30 97l26 55 48 52 48 52 59 28 59 28 56 6c31 4 70 12 88 18l31 10 69-12c37-6 94-23 126-35 31-13 57-22 57-20 0 8-98 53-149 68l-55 16-80-1-81-1-41-13zm59-142c-7-2-19-2-25 0l-13 5h50l-12-5zm-62-21c-14-9-46-38-72-64l-47-46-28-61c-25-55-44-77-44-51 0 22 34 106 57 142l26 38 45 30 45 30h21l21-1-24-17zm254-692c-3-5-14-10-23-9h-17l20 9c27 11 27 11 20 0zm-404 844c-19-8-32-17-29-19 3-3 25 3 49 14l44 20h-15c-8 0-30-6-49-15zm679-148c0-2 8-10 18-17l17-14-14 18c-13 16-21 21-21 13zm-25-36c10-11 20-20 23-20s-3 9-13 20-20 20-23 20 3-9 13-20zm-365 7c0-3 20-15 44-25 24-11 61-36 83-55l39-35 22-45 22-44 6-59 6-59-11-39-10-40 16-18 16-18-13-15c-7-8-18-15-24-15s-36-19-66-41c-30-23-68-48-85-56l-30-14 60 6 60 7 43 21 44 21 32 36c18 20 45 62 61 93l27 57 5 44 5 44-25 55-25 54-38 43-39 43-53 24-54 23-59 7c-32 3-59 3-59 0zm310-9c0-2 33-33 73-68l72-64-35 38c-34 37-110 102-110 94zm11-135 24-42 16-4c8-2 89-84 180-182 221-240 217-235 279-286l55-44 75-34c41-19 78-39 81-44l6-9 99 4 99 4 49 22c27 13 47 24 45 26s-42-4-89-15c-47-10-101-19-121-19-54 0-137 28-209 70l-65 39-65 64c-36 35-105 108-154 163-121 134-243 259-290 297l-39 31 24-41zm329-198c13-14 26-25 28-25 3 0-5 11-18 25s-26 25-28 25c-3 0 5-11 18-25zm254-203 19-22h-14c-8 0-20 5-27 12s-12 9-12 5 28-27 62-52l62-45 55-21 56-20 56 6 56 7 33 19c43 27 34 32-20 13l-45-16-55 4-55 4-50 24c-28 13-70 42-95 65-25 22-36 30-26 17zm386-128-25-15 25 7c14 3 29 10 35 15l9 9h-9c-6-1-21-7-35-16zm-573-447-17-12 2-183 3-182 23 15 22 16v359h-8c-5 0-16-6-25-13zm1131 2-18-10V472l-19-23-19-24-263-3c-144-2-273-1-286 3l-23 5v91l-15 30-16 30-32 19-32 20h-93l-6-16c-3-9-6-17-6-19 0-1 23-5 52-7l52-5 23-27 23-27v-87l-16-6c-9-3-58-6-109-6h-94l-11-20-11-20h881l32 29 33 29 3 166 3 166h-8c-4 0-16-5-25-11zm-1345-26-13-5v-22c0-12-5-27-12-34l-12-12h84v9c0 5-10 11-22 13l-23 3-3 18-3 17h56l-15 10c-16 11-19 11-37 3zm10-126-23-10V489l-15-28-14-28-32-7c-17-3-148-6-290-6H671l-24 9c-13 5-31 17-40 26l-17 16v139h-8c-5 0-15-6-24-12l-16-13-4-63-4-62-21-28-20-27-38-13-38-12-35 12-35 13-16 24-16 25-5 70-5 71h-50l1-71v-70l20-34c25-43 61-69 110-80l39-9 41 10 42 11 32 33 33 34 25-19 25-20h622l32 20 32 19 11 38 11 38-3 61-3 61-22-10zM770 200c0-5 5-10 11-10h10l-6 10c-3 6-8 10-11 10-2 0-4-4-4-10zm867-4-6-15 14 6 15 5-6 9c-7 12-11 11-17-5zm915-38 1-43 4 33 4 34 16-6 16-6-13 15c-7 8-16 15-21 15h-9l2-42zM790 175c0-5 5-17 10-25l10-15v10c0 6-5 17-10 25l-10 15v-10zm478-38-6-29 10 10 10 10-4 18-4 19-6-28zm402 18c0-5 5-17 10-25l10-15v10c0 6-5 17-10 25l-10 15v-10zm-64-20c-9-26-7-32 5-12 6 10 9 21 6 23-2 3-7-2-11-11zM716 93l-7-18 12 12c7 7 10 15 7 18s-9-2-12-12zm1924 8c0-6 5-13 10-16l10-6v15c0 9-4 16-10 16-5 0-10-4-10-9zM300 90c0-5 5-10 11-10h10l-6 10c-3 6-8 10-11 10-2 0-4-4-4-10z"/></g></g></svg>